<?xml version="1.0" encoding="utf-8"?>
<!-- Generator: Adobe Illustrator 16.0.0, SVG Export Plug-In . SVG Version: 6.00 Build 0)  -->
<!DOCTYPE svg PUBLIC "-//W3C//DTD SVG 1.1//EN" "http://www.w3.org/Graphics/SVG/1.1/DTD/svg11.dtd">
<svg version="1.1" xmlns="http://www.w3.org/2000/svg" xmlns:xlink="http://www.w3.org/1999/xlink" x="0px" y="0px" width="380px"
	 height="257px" viewBox="0 0 380 257" enable-background="new 0 0 380 257" xml:space="preserve">
<g id="Background_xA0_Image_1_" display="none">
</g>
<g id="Logo_1_">
	<g id="Shape_4">
		<g>
			<path fill-rule="evenodd" clip-rule="evenodd" fill="#0067C3" d="M302.453,83.414C284.496,38.457,240.581,6.678,189.216,6.678
				c-47.295,0-88.269,26.946-108.488,66.307c0.73-0.019,1.456-0.056,2.19-0.056c11.023,0,21.553,2.088,31.245,5.854
				c16.139-24.272,43.725-40.277,75.058-40.277c44.11,0,80.791,31.713,88.547,73.577c5.325-1.926,11.067-2.979,17.057-2.979
				c27.7,0,50.156,22.456,50.156,50.156c0,27.701-22.456,50.156-50.156,50.156c-16.142,0-30.492-7.633-39.666-19.478
				c-16.447,17.668-39.895,28.732-65.938,28.732c-13.184,0-25.693-2.855-36.979-7.944c-6.8,9.146-15.372,16.892-25.202,22.748
				c18.208,10.819,39.461,17.051,62.177,17.051c26.678,0,51.336-8.593,71.409-23.128c10.287,5.174,21.896,8.104,34.195,8.104
				c42.104,0,76.234-34.131,76.234-76.234C371.055,119.74,340.972,87.243,302.453,83.414z"/>
		</g>
	</g>
	<g id="Shape_4_copy_2">
		<g>
			<path fill-rule="evenodd" clip-rule="evenodd" fill="#446274" d="M172.164,115.227l15.46,10.986l-63.876,68.164
				c-0.008-0.008-0.016-0.014-0.023-0.021c-9.353,9.738-22.476,15.826-37.043,15.826c-28.384,0-51.394-23.009-51.394-51.393
				s23.01-51.394,51.394-51.394c4.046,0,7.965,0.517,11.742,1.4c2.074-8.925,5.464-17.339,9.966-25.031
				c-6.896-1.992-14.175-3.081-21.712-3.081c-43.142,0-78.114,34.973-78.114,78.113c0,43.142,34.973,78.114,78.114,78.114
				c23.021,0,43.682-9.99,57.978-25.835l0.086,0.051l63.587-70.202l14.044,9.979l7.697-56.139L172.164,115.227z"/>
		</g>
	</g>
</g>
</svg>
