<?xml version="1.0" encoding="utf-8"?>
<!-- Generator: Adobe Illustrator 16.0.0, SVG Export Plug-In . SVG Version: 6.00 Build 0)  -->
<!DOCTYPE svg PUBLIC "-//W3C//DTD SVG 1.1//EN" "http://www.w3.org/Graphics/SVG/1.1/DTD/svg11.dtd">
<svg version="1.1" xmlns="http://www.w3.org/2000/svg" xmlns:xlink="http://www.w3.org/1999/xlink" x="0px" y="0px" width="1193px"
	 height="257px" viewBox="0 0 1193 257" enable-background="new 0 0 1193 257" xml:space="preserve">
<g id="Background_xA0_Image_1_" display="none">
</g>
<g id="Logo_1_">
	<g id="DashVid.io">
		<g>
			<path fill-rule="evenodd" clip-rule="evenodd" fill="#0067C3" d="M467.157,91.346c-13.491,0-29.649,0-43.14,0v109.812
				c13.49,0,29.648,0,43.14,0c38.435,0,55.377-28.08,54.906-55.847C521.593,118.171,504.808,91.346,467.157,91.346z
				 M467.157,181.234h-22.59v-70.279h22.59c23.845,0,33.885,17.1,34.355,34.198C501.983,163.037,492.101,181.234,467.157,181.234z
				 M595.837,134.486c-4.393-7.688-14.275-12.55-24.63-12.55c-22.59-0.157-40.316,13.805-40.316,40.473
				c0,27.14,16.942,41.259,39.846,41.102c8.629-0.157,20.708-4.55,25.101-13.648l0.941,11.295h18.04v-77.339h-18.354
				L595.837,134.486z M572.934,185.94c-12.707,0-22.904-8.784-22.904-23.531c0-14.746,10.197-23.374,22.904-23.374
				C603.053,139.035,603.053,185.94,572.934,185.94z M662.674,153.625c-9.883-0.628-14.432-3.451-14.432-8.472
				c0-4.863,5.02-7.687,14.118-7.687c7.373,0,13.648,1.726,19.139,6.902l10.667-12.55c-8.941-7.844-18.04-10.197-30.119-10.197
				c-14.119,0-32.63,6.275-32.63,24.159c0,17.569,17.413,22.903,32.002,24.002c10.981,0.627,15.374,2.823,15.374,8.157
				c0,5.647-6.746,9.412-13.962,9.255c-8.628-0.156-21.178-4.706-26.669-10.824l-9.412,13.648
				c11.295,11.766,23.531,13.805,35.768,13.805c22.119,0,33.257-11.766,33.257-25.413
				C695.774,157.86,677.264,154.566,662.674,153.625z M750.534,122.721c-8.785,0-17.256,2.667-24.158,11.608V91.346h-19.139v109.812
				h19.139v-39.532c0-11.608,7.844-21.178,19.139-21.178c10.196,0,17.569,5.961,17.569,20.08v40.63h19.139V160.37
				C782.223,137.624,772.497,122.721,750.534,122.721z M848.938,176.842l-33.101-85.496h-23.217l45.65,110.282h21.491l45.65-110.282
				h-23.217L848.938,176.842z M916.384,201.157h19.139v-77.652h-19.139V201.157z M914.658,102.014c0,14.902,22.59,14.902,22.59,0
				C937.248,87.11,914.658,87.11,914.658,102.014z M1014.602,91.503v42.826c-4.55-8-17.256-12.393-25.414-12.393
				c-22.59,0-39.375,13.805-39.375,40.473c0,25.414,17.1,40.474,39.846,40.474c9.413,0,18.982-3.137,24.943-12.393l1.255,10.667
				h17.884V91.503H1014.602z M990.914,185.156c-12.236,0-21.963-9.256-21.963-22.747c0-13.961,9.727-22.589,21.963-22.589
				c12.079,0,22.433,9.098,22.433,22.589C1013.347,176.371,1002.993,185.156,990.914,185.156z"/>
		</g>
	</g>
	<g id="Shape_5">
		<g>
			<path fill-rule="evenodd" clip-rule="evenodd" fill="#446274" d="M1048.652,196.451c0,8.157,12.393,8.157,12.393,0
				S1048.652,188.294,1048.652,196.451z M1082.134,201.157h7.687v-77.81h-7.687V201.157z M1079.938,98.405
				c0,8.157,12.393,8.157,12.393,0S1079.938,90.248,1079.938,98.405z M1148.401,122.25c-21.806,0-39.375,15.688-39.375,40.316
				s17.569,39.689,39.375,39.689s39.375-15.061,39.375-39.689S1170.207,122.25,1148.401,122.25z M1148.401,194.726
				c-17.57,0-31.846-12.079-31.846-32.159s14.275-33.101,31.846-33.101c17.569,0,31.846,13.021,31.846,33.101
				S1165.971,194.726,1148.401,194.726z"/>
		</g>
	</g>
	<g id="Shape_4">
		<g>
			<path fill-rule="evenodd" clip-rule="evenodd" fill="#0067C3" d="M302.453,83.414C284.496,38.457,240.581,6.678,189.216,6.678
				c-47.295,0-88.269,26.946-108.488,66.307c0.73-0.019,1.456-0.056,2.19-0.056c11.023,0,21.553,2.088,31.245,5.854
				c16.139-24.272,43.725-40.277,75.058-40.277c44.11,0,80.791,31.713,88.547,73.577c5.325-1.926,11.067-2.979,17.057-2.979
				c27.7,0,50.156,22.456,50.156,50.156c0,27.701-22.456,50.156-50.156,50.156c-16.142,0-30.492-7.633-39.666-19.478
				c-16.447,17.668-39.895,28.732-65.938,28.732c-13.184,0-25.693-2.855-36.979-7.944c-6.8,9.146-15.372,16.892-25.202,22.748
				c18.208,10.819,39.461,17.051,62.177,17.051c26.678,0,51.336-8.593,71.409-23.128c10.287,5.174,21.896,8.104,34.195,8.104
				c42.104,0,76.234-34.131,76.234-76.234C371.055,119.74,340.972,87.243,302.453,83.414z"/>
		</g>
	</g>
	<g id="Shape_4_copy_2">
		<g>
			<path fill-rule="evenodd" clip-rule="evenodd" fill="#446274" d="M172.164,115.227l15.46,10.986l-63.876,68.164
				c-0.008-0.008-0.016-0.014-0.023-0.021c-9.353,9.738-22.476,15.826-37.043,15.826c-28.384,0-51.394-23.009-51.394-51.393
				s23.01-51.394,51.394-51.394c4.046,0,7.965,0.517,11.742,1.4c2.074-8.925,5.464-17.339,9.966-25.031
				c-6.896-1.992-14.175-3.081-21.712-3.081c-43.142,0-78.114,34.973-78.114,78.113c0,43.142,34.973,78.114,78.114,78.114
				c23.021,0,43.682-9.99,57.978-25.835l0.086,0.051l63.587-70.202l14.044,9.979l7.697-56.139L172.164,115.227z"/>
		</g>
	</g>
</g>
</svg>
